<mxfile host="app.diagrams.net" modified="2023-10-22T12:39:12.108Z" agent="Mozilla/5.0 (Windows NT 10.0; Win64; x64) AppleWebKit/537.36 (KHTML, like Gecko) Chrome/117.0.0.0 Safari/537.36" etag="CCmNoHbrnKEkhFs8oMdE" version="22.0.6" type="device">
  <diagram name="Page-1" id="VIfkTziANoQJkpec3Q1L">
    <mxGraphModel dx="527" dy="657" grid="1" gridSize="10" guides="1" tooltips="1" connect="1" arrows="1" fold="1" page="1" pageScale="1" pageWidth="850" pageHeight="1100" math="0" shadow="0">
      <root>
        <mxCell id="0" />
        <mxCell id="1" parent="0" />
        <mxCell id="QktEt9bniI2aZkkmWCay-48" style="edgeStyle=orthogonalEdgeStyle;rounded=0;orthogonalLoop=1;jettySize=auto;html=1;exitX=0.75;exitY=1;exitDx=0;exitDy=0;entryX=0.25;entryY=1;entryDx=0;entryDy=0;" edge="1" parent="1" source="QktEt9bniI2aZkkmWCay-1" target="QktEt9bniI2aZkkmWCay-16">
          <mxGeometry relative="1" as="geometry">
            <Array as="points">
              <mxPoint x="295" y="550" />
              <mxPoint x="505" y="550" />
            </Array>
          </mxGeometry>
        </mxCell>
        <mxCell id="QktEt9bniI2aZkkmWCay-1" value="" style="rounded=0;whiteSpace=wrap;html=1;" vertex="1" parent="1">
          <mxGeometry x="100" y="269" width="260" height="250" as="geometry" />
        </mxCell>
        <mxCell id="QktEt9bniI2aZkkmWCay-2" value="Slave" style="text;html=1;align=center;verticalAlign=middle;resizable=0;points=[];autosize=1;strokeColor=none;fillColor=none;" vertex="1" parent="1">
          <mxGeometry x="190" y="239" width="50" height="30" as="geometry" />
        </mxCell>
        <mxCell id="QktEt9bniI2aZkkmWCay-3" value="" style="endArrow=classic;html=1;rounded=0;entryX=0.75;entryY=0;entryDx=0;entryDy=0;" edge="1" parent="1" target="QktEt9bniI2aZkkmWCay-1">
          <mxGeometry width="50" height="50" relative="1" as="geometry">
            <mxPoint x="400" y="240" as="sourcePoint" />
            <mxPoint x="320" y="360" as="targetPoint" />
          </mxGeometry>
        </mxCell>
        <mxCell id="QktEt9bniI2aZkkmWCay-5" value="" style="rounded=0;whiteSpace=wrap;html=1;" vertex="1" parent="1">
          <mxGeometry x="110" y="329" width="240" height="60" as="geometry" />
        </mxCell>
        <mxCell id="QktEt9bniI2aZkkmWCay-6" value="TaskQueue" style="text;html=1;align=center;verticalAlign=middle;resizable=0;points=[];autosize=1;strokeColor=none;fillColor=none;" vertex="1" parent="1">
          <mxGeometry x="95" y="299" width="80" height="30" as="geometry" />
        </mxCell>
        <mxCell id="QktEt9bniI2aZkkmWCay-7" value="TaskId&lt;br&gt;SlaveId&lt;br&gt;Params" style="rounded=0;whiteSpace=wrap;html=1;" vertex="1" parent="1">
          <mxGeometry x="120" y="339" width="50" height="40" as="geometry" />
        </mxCell>
        <mxCell id="QktEt9bniI2aZkkmWCay-11" value="" style="rounded=0;whiteSpace=wrap;html=1;" vertex="1" parent="1">
          <mxGeometry x="180" y="339" width="50" height="40" as="geometry" />
        </mxCell>
        <mxCell id="QktEt9bniI2aZkkmWCay-12" value="" style="rounded=0;whiteSpace=wrap;html=1;" vertex="1" parent="1">
          <mxGeometry x="240" y="339" width="50" height="40" as="geometry" />
        </mxCell>
        <mxCell id="QktEt9bniI2aZkkmWCay-13" value="Head" style="rounded=0;whiteSpace=wrap;html=1;" vertex="1" parent="1">
          <mxGeometry x="300" y="339" width="50" height="40" as="geometry" />
        </mxCell>
        <mxCell id="QktEt9bniI2aZkkmWCay-14" value="" style="endArrow=classic;html=1;rounded=0;exitX=0.5;exitY=1;exitDx=0;exitDy=0;entryX=0.145;entryY=-0.007;entryDx=0;entryDy=0;entryPerimeter=0;" edge="1" parent="1" source="QktEt9bniI2aZkkmWCay-7" target="QktEt9bniI2aZkkmWCay-15">
          <mxGeometry width="50" height="50" relative="1" as="geometry">
            <mxPoint x="280" y="409" as="sourcePoint" />
            <mxPoint x="170" y="450" as="targetPoint" />
          </mxGeometry>
        </mxCell>
        <mxCell id="QktEt9bniI2aZkkmWCay-15" value="Task router(switch)&lt;br&gt;Execute implemented task" style="rounded=0;whiteSpace=wrap;html=1;" vertex="1" parent="1">
          <mxGeometry x="110" y="450" width="240" height="60" as="geometry" />
        </mxCell>
        <mxCell id="QktEt9bniI2aZkkmWCay-16" value="" style="rounded=0;whiteSpace=wrap;html=1;" vertex="1" parent="1">
          <mxGeometry x="440" y="270" width="260" height="250" as="geometry" />
        </mxCell>
        <mxCell id="QktEt9bniI2aZkkmWCay-17" value="Master" style="text;html=1;align=center;verticalAlign=middle;resizable=0;points=[];autosize=1;strokeColor=none;fillColor=none;" vertex="1" parent="1">
          <mxGeometry x="550" y="240" width="60" height="30" as="geometry" />
        </mxCell>
        <mxCell id="QktEt9bniI2aZkkmWCay-18" value="Packet Parser" style="rounded=0;whiteSpace=wrap;html=1;" vertex="1" parent="1">
          <mxGeometry x="110" y="279" width="240" height="20" as="geometry" />
        </mxCell>
        <mxCell id="QktEt9bniI2aZkkmWCay-19" value="Packet Parser/Builder" style="rounded=0;whiteSpace=wrap;html=1;" vertex="1" parent="1">
          <mxGeometry x="450" y="280" width="240" height="20" as="geometry" />
        </mxCell>
        <mxCell id="QktEt9bniI2aZkkmWCay-20" value="Task builder" style="rounded=0;whiteSpace=wrap;html=1;" vertex="1" parent="1">
          <mxGeometry x="450" y="330" width="240" height="30" as="geometry" />
        </mxCell>
        <mxCell id="QktEt9bniI2aZkkmWCay-21" value="Database (possible be in separated)" style="rounded=0;whiteSpace=wrap;html=1;" vertex="1" parent="1">
          <mxGeometry x="450" y="450" width="240" height="60" as="geometry" />
        </mxCell>
        <mxCell id="QktEt9bniI2aZkkmWCay-22" value="" style="endArrow=none;html=1;rounded=0;entryX=0.25;entryY=0;entryDx=0;entryDy=0;" edge="1" parent="1" target="QktEt9bniI2aZkkmWCay-16">
          <mxGeometry width="50" height="50" relative="1" as="geometry">
            <mxPoint x="400" y="240" as="sourcePoint" />
            <mxPoint x="520" y="140" as="targetPoint" />
          </mxGeometry>
        </mxCell>
        <mxCell id="QktEt9bniI2aZkkmWCay-23" value="Slave Tree" style="rounded=0;whiteSpace=wrap;html=1;" vertex="1" parent="1">
          <mxGeometry x="450" y="390" width="240" height="40" as="geometry" />
        </mxCell>
        <mxCell id="QktEt9bniI2aZkkmWCay-24" value="" style="rounded=0;whiteSpace=wrap;html=1;" vertex="1" parent="1">
          <mxGeometry x="240" y="50" width="320" height="190" as="geometry" />
        </mxCell>
        <mxCell id="QktEt9bniI2aZkkmWCay-25" value="Task Packet" style="text;html=1;align=center;verticalAlign=middle;resizable=0;points=[];autosize=1;strokeColor=none;fillColor=none;" vertex="1" parent="1">
          <mxGeometry x="225" y="20" width="90" height="30" as="geometry" />
        </mxCell>
        <mxCell id="QktEt9bniI2aZkkmWCay-26" value="Socket Structure" style="rounded=0;whiteSpace=wrap;html=1;" vertex="1" parent="1">
          <mxGeometry x="250" y="60" width="300" height="30" as="geometry" />
        </mxCell>
        <mxCell id="QktEt9bniI2aZkkmWCay-30" value="Task Packet Structure&amp;nbsp;" style="swimlane;fontStyle=0;childLayout=stackLayout;horizontal=1;startSize=30;horizontalStack=0;resizeParent=1;resizeParentMax=0;resizeLast=0;collapsible=1;marginBottom=0;whiteSpace=wrap;html=1;" vertex="1" parent="1">
          <mxGeometry x="250" y="100" width="300" height="120" as="geometry" />
        </mxCell>
        <mxCell id="QktEt9bniI2aZkkmWCay-31" value="Slave ID" style="text;strokeColor=none;fillColor=none;align=left;verticalAlign=middle;spacingLeft=4;spacingRight=4;overflow=hidden;points=[[0,0.5],[1,0.5]];portConstraint=eastwest;rotatable=0;whiteSpace=wrap;html=1;" vertex="1" parent="QktEt9bniI2aZkkmWCay-30">
          <mxGeometry y="30" width="300" height="30" as="geometry" />
        </mxCell>
        <mxCell id="QktEt9bniI2aZkkmWCay-32" value="Task ID" style="text;strokeColor=none;fillColor=none;align=left;verticalAlign=middle;spacingLeft=4;spacingRight=4;overflow=hidden;points=[[0,0.5],[1,0.5]];portConstraint=eastwest;rotatable=0;whiteSpace=wrap;html=1;" vertex="1" parent="QktEt9bniI2aZkkmWCay-30">
          <mxGeometry y="60" width="300" height="30" as="geometry" />
        </mxCell>
        <mxCell id="QktEt9bniI2aZkkmWCay-33" value="Params" style="text;strokeColor=none;fillColor=none;align=left;verticalAlign=middle;spacingLeft=4;spacingRight=4;overflow=hidden;points=[[0,0.5],[1,0.5]];portConstraint=eastwest;rotatable=0;whiteSpace=wrap;html=1;" vertex="1" parent="QktEt9bniI2aZkkmWCay-30">
          <mxGeometry y="90" width="300" height="30" as="geometry" />
        </mxCell>
        <mxCell id="QktEt9bniI2aZkkmWCay-40" value="" style="rounded=0;whiteSpace=wrap;html=1;" vertex="1" parent="1">
          <mxGeometry x="240" y="560" width="320" height="180" as="geometry" />
        </mxCell>
        <mxCell id="QktEt9bniI2aZkkmWCay-41" value="Socket Structure" style="rounded=0;whiteSpace=wrap;html=1;" vertex="1" parent="1">
          <mxGeometry x="250" y="570" width="300" height="30" as="geometry" />
        </mxCell>
        <mxCell id="QktEt9bniI2aZkkmWCay-42" value="Response Structure&amp;nbsp;" style="swimlane;fontStyle=0;childLayout=stackLayout;horizontal=1;startSize=30;horizontalStack=0;resizeParent=1;resizeParentMax=0;resizeLast=0;collapsible=1;marginBottom=0;whiteSpace=wrap;html=1;" vertex="1" parent="1">
          <mxGeometry x="250" y="610" width="300" height="120" as="geometry" />
        </mxCell>
        <mxCell id="QktEt9bniI2aZkkmWCay-43" value="Slave ID" style="text;strokeColor=none;fillColor=none;align=left;verticalAlign=middle;spacingLeft=4;spacingRight=4;overflow=hidden;points=[[0,0.5],[1,0.5]];portConstraint=eastwest;rotatable=0;whiteSpace=wrap;html=1;" vertex="1" parent="QktEt9bniI2aZkkmWCay-42">
          <mxGeometry y="30" width="300" height="30" as="geometry" />
        </mxCell>
        <mxCell id="QktEt9bniI2aZkkmWCay-44" value="Response code" style="text;strokeColor=none;fillColor=none;align=left;verticalAlign=middle;spacingLeft=4;spacingRight=4;overflow=hidden;points=[[0,0.5],[1,0.5]];portConstraint=eastwest;rotatable=0;whiteSpace=wrap;html=1;" vertex="1" parent="QktEt9bniI2aZkkmWCay-42">
          <mxGeometry y="60" width="300" height="30" as="geometry" />
        </mxCell>
        <mxCell id="QktEt9bniI2aZkkmWCay-45" value="Params" style="text;strokeColor=none;fillColor=none;align=left;verticalAlign=middle;spacingLeft=4;spacingRight=4;overflow=hidden;points=[[0,0.5],[1,0.5]];portConstraint=eastwest;rotatable=0;whiteSpace=wrap;html=1;" vertex="1" parent="QktEt9bniI2aZkkmWCay-42">
          <mxGeometry y="90" width="300" height="30" as="geometry" />
        </mxCell>
        <mxCell id="QktEt9bniI2aZkkmWCay-46" value="Response Packet" style="text;html=1;align=center;verticalAlign=middle;resizable=0;points=[];autosize=1;strokeColor=none;fillColor=none;" vertex="1" parent="1">
          <mxGeometry x="340" y="519" width="120" height="30" as="geometry" />
        </mxCell>
      </root>
    </mxGraphModel>
  </diagram>
</mxfile>
